<svg xmlns="http://www.w3.org/2000/svg" viewBox="0 0 32 32" id="prompt-search"><g data-name="Layer 38"><path fill="#3276fc" d="M19.79,19.78h0a2.5,2.5,0,0,1,3.53,0l4.95,4.95a2.5,2.5,0,0,1,0,3.54h0a2.49,2.49,0,0,1-3.53,0l-4.95-4.95A2.5,2.5,0,0,1,19.79,19.78Z"></path><circle cx="15" cy="15" r="12" fill="#50a8ff"></circle><circle cx="15" cy="15" r="7.5" fill="#e6f6fc"></circle><rect width="4" height="2" x="15.62" y="15.83" fill="#445377"></rect><polygon fill="#445377" points="10.37 13.58 11.79 15 10.37 16.41 11.79 17.83 14.62 15 11.79 12.17 10.37 13.58"></polygon></g></svg>